<?xml version="1.0" standalone="no"?>
<!DOCTYPE svg PUBLIC "-//W3C//DTD SVG 20010904//EN"
 "http://www.w3.org/TR/2001/REC-SVG-20010904/DTD/svg10.dtd">
<svg version="1.0" xmlns="http://www.w3.org/2000/svg"
 width="128.000000pt" height="128.000000pt" viewBox="0 0 128.000000 128.000000"
 preserveAspectRatio="xMidYMid meet">

<g transform="translate(0.000000,128.000000) scale(0.100000,-0.100000)"
fill="#49aabe" stroke="none">
<path d="M550 1259 c-100 -45 -132 -103 -138 -246 l-4 -103 -104 0 c-99 0
-105 -1 -114 -22 -5 -13 -18 -192 -29 -398 -20 -356 -20 -376 -3 -410 9 -19
32 -45 51 -57 34 -23 35 -23 431 -23 396 0 397 0 431 23 19 12 42 38 51 57 17
34 17 54 -3 410 -11 206 -24 385 -29 398 -9 21 -15 22 -115 22 l-105 0 0 88
c-1 138 -41 215 -134 258 -63 29 -126 30 -186 3z m165 -93 c48 -32 60 -63 60
-160 l0 -91 -135 0 -135 0 0 92 c0 77 3 96 21 120 44 61 129 78 189 39z"/>
</g>
</svg>
